<svg width="28" height="27" viewBox="0 0 28 27" fill="none" xmlns="http://www.w3.org/2000/svg">
<path d="M22.4375 3.375H5.5625C5.11495 3.375 4.68572 3.55279 4.36926 3.86926C4.05279 4.18572 3.875 4.61495 3.875 5.0625V21.9375C3.875 22.3851 4.05279 22.8143 4.36926 23.1307C4.68572 23.4472 5.11495 23.625 5.5625 23.625H22.4375C22.8851 23.625 23.3143 23.4472 23.6307 23.1307C23.9472 22.8143 24.125 22.3851 24.125 21.9375V5.0625C24.125 4.61495 23.9472 4.18572 23.6307 3.86926C23.3143 3.55279 22.8851 3.375 22.4375 3.375ZM5.5625 21.9375V5.0625H22.4375V21.9375H5.5625Z" fill="black"/>
</svg>
