<svg width="8" height="8" viewBox="0 0 8 8" fill="none" xmlns="http://www.w3.org/2000/svg">
<path d="M3.72601 6.52302C3.75659 6.56744 3.79751 6.60375 3.84524 6.62884C3.89297 6.65392 3.94609 6.66703 4.00001 6.66703C4.05393 6.66703 4.10705 6.65392 4.15478 6.62884C4.20251 6.60375 4.24343 6.56744 4.27401 6.52302L7.27401 2.18969C7.30873 2.13971 7.3291 2.08116 7.33289 2.02042C7.33668 1.95968 7.32375 1.89906 7.29551 1.84515C7.26726 1.79124 7.22478 1.7461 7.17269 1.71464C7.12059 1.68318 7.06087 1.66659 7.00001 1.66669H1.00001C0.939291 1.66694 0.879789 1.68374 0.827903 1.71528C0.776017 1.74681 0.73371 1.7919 0.705532 1.84569C0.677354 1.89947 0.664371 1.95992 0.667979 2.02053C0.671587 2.08114 0.69165 2.13962 0.726009 2.18969L3.72601 6.52302Z" fill="black"/>
</svg>
