<svg width="103" height="14" viewBox="0 0 103 14" fill="none" xmlns="http://www.w3.org/2000/svg">
<path d="M7.5 1.26414L9.06863 4.90665L9.18606 5.17934L9.48168 5.20675L13.4307 5.57301L10.4512 8.19047L10.2281 8.38641L10.2934 8.67604L11.1653 12.5449L7.75528 10.5201L7.5 10.3685L7.24472 10.5201L3.83465 12.5449L4.70662 8.67604L4.7719 8.38641L4.54885 8.19047L1.56934 5.57301L5.51832 5.20675L5.81394 5.17934L5.93137 4.90665L7.5 1.26414Z" stroke="black"/>
<path d="M29.5 1.26414L31.0686 4.90665L31.1861 5.17934L31.4817 5.20675L35.4307 5.57301L32.4512 8.19047L32.2281 8.38641L32.2934 8.67604L33.1653 12.5449L29.7553 10.5201L29.5 10.3685L29.2447 10.5201L25.8347 12.5449L26.7066 8.67604L26.7719 8.38641L26.5488 8.19047L23.5693 5.57301L27.5183 5.20675L27.8139 5.17934L27.9314 4.90665L29.5 1.26414Z" stroke="black"/>
<path d="M51.5 1.26414L53.0686 4.90665L53.1861 5.17934L53.4817 5.20675L57.4307 5.57301L54.4512 8.19047L54.2281 8.38641L54.2934 8.67604L55.1653 12.5449L51.7553 10.5201L51.5 10.3685L51.2447 10.5201L47.8347 12.5449L48.7066 8.67604L48.7719 8.38641L48.5488 8.19047L45.5693 5.57301L49.5183 5.20675L49.8139 5.17934L49.9314 4.90665L51.5 1.26414Z" stroke="black"/>
<path d="M73.5 1.26414L75.0686 4.90665L75.1861 5.17934L75.4817 5.20675L79.4307 5.57301L76.4512 8.19047L76.2281 8.38641L76.2934 8.67604L77.1653 12.5449L73.7553 10.5201L73.5 10.3685L73.2447 10.5201L69.8347 12.5449L70.7066 8.67604L70.7719 8.38641L70.5488 8.19047L67.5693 5.57301L71.5183 5.20675L71.8139 5.17934L71.9314 4.90665L73.5 1.26414Z" stroke="black"/>
<path d="M95.5 1.26414L97.0686 4.90665L97.1861 5.17934L97.4817 5.20675L101.431 5.57301L98.4512 8.19047L98.2281 8.38641L98.2934 8.67604L99.1653 12.5449L95.7553 10.5201L95.5 10.3685L95.2447 10.5201L91.8347 12.5449L92.7066 8.67604L92.7719 8.38641L92.5488 8.19047L89.5693 5.57301L93.5183 5.20675L93.8139 5.17934L93.9314 4.90665L95.5 1.26414Z" stroke="black"/>
</svg>
